<svg width="580" height="400" xmlns="http://www.w3.org/2000/svg">
 <!-- Created with Method Draw - http://github.com/duopixel/Method-Draw/ -->

 <g>
  <title>background</title>
  <rect fill="#fff" id="canvas_background" height="402" width="582" y="-1" x="-1"/>
  <g display="none" overflow="visible" y="0" x="0" height="100%" width="100%" id="canvasGrid">
   <rect fill="url(#gridpattern)" stroke-width="0" y="0" x="0" height="100%" width="100%"/>
  </g>
 </g>
 <g>
  <title>Layer 1</title>
  <metadata transform="matrix(0.17470128905763804,0,0,0.17470128905763804,0,0) ">Created by potrace 1.15, written by Peter Selinger 2001-2017</metadata>
  <g id="svg_4" fill="#000000" transform="matrix(0.017470129166089015,0,0,-0.017470129166089015,0,55.72971120938654) ">
   <path fill="#f09819" id="svg_5" d="m1305,2500c-287,-21 -516,-50 -800,-101c-93,-17 -171,-33 -173,-34c-2,-1 21,-76 51,-166c178,-537 483,-1052 929,-1566c113,-130 276,-307 287,-311c5,-2 83,82 173,185c343,393 426,505 621,838c90,153 103,181 89,187c-9,4 -98,26 -197,48c-99,22 -315,71 -480,109c-165,37 -302,67 -304,65c-5,-4 130,-243 142,-251c5,-3 125,-31 265,-63c141,-31 257,-61 259,-66c4,-13 -187,-301 -274,-413c-117,-149 -285,-346 -296,-346c-21,0 -429,537 -567,745c-45,69 -124,211 -175,315c-89,182 -242,542 -234,549c6,5 395,44 614,62c248,20 627,14 920,-15c248,-24 429,-44 432,-46c2,-1 -48,-114 -111,-251c-62,-137 -112,-250 -111,-252c2,-2 48,-14 103,-26l100,-23l147,345c80,189 145,346 143,347c-2,2 -69,17 -150,34c-163,34 -432,74 -608,91c-152,15 -643,21 -795,10z"/>
   <path fill="#f09819" id="svg_6" d="m1320,2104c-25,-2 -110,-8 -190,-14c-80,-6 -168,-14 -196,-17l-52,-5l41,-92c68,-150 211,-426 270,-521c71,-116 163,-246 295,-418c100,-129 107,-136 123,-120c49,53 268,374 257,378c-7,2 -53,13 -102,25l-90,21l-33,-38c-18,-21 -32,-41 -33,-45c-1,-24 -29,7 -128,138c-85,112 -130,184 -198,319c-49,95 -86,176 -83,179c13,13 217,29 369,29c155,-1 407,-17 417,-27c2,-2 -3,-19 -12,-36c-9,-18 -13,-36 -8,-40c10,-9 192,-54 197,-49c9,10 164,294 162,297c-17,17 -870,48 -1006,36z"/>
  </g>
  <g id="svg_7"/>
 </g>
</svg>